<?xml version="1.0" standalone="no"?>
<!DOCTYPE svg PUBLIC "-//W3C//DTD SVG 20010904//EN"
 "http://www.w3.org/TR/2001/REC-SVG-20010904/DTD/svg10.dtd">
<svg version="1.0" xmlns="http://www.w3.org/2000/svg"
 width="358.000000pt" height="358.000000pt" viewBox="0 0 358.000000 358.000000"
 preserveAspectRatio="xMidYMid meet">
<metadata>
Created by potrace 1.14, written by Peter Selinger 2001-2017
</metadata>
<g transform="translate(0.000000,358.000000) scale(0.100000,-0.100000)"
fill="#000000" stroke="none">
<path d="M220 2533 l0 -68 600 -750 600 -750 88 0 87 0 0 815 0 815 -102 3
-103 3 -2 -636 -3 -635 -335 421 c-184 232 -411 518 -505 635 l-169 214 -78 0
-78 0 0 -67z"/>
<path d="M2210 1965 l0 -635 105 0 105 0 0 545 0 545 289 0 289 0 53 -28 c131
-68 178 -248 102 -384 -38 -67 -97 -113 -163 -127 -28 -6 -123 -11 -210 -11
l-160 0 0 -80 0 -80 190 0 c104 0 212 -5 240 -11 72 -15 128 -62 167 -138 28
-54 33 -73 33 -134 0 -119 -54 -208 -157 -258 -48 -24 -50 -24 -465 -27 l-418
-3 0 -90 0 -90 438 3 c388 4 443 6 492 22 136 45 232 123 286 231 27 56 29 67
29 180 0 111 -2 124 -28 177 -41 84 -116 161 -193 199 l-64 32 48 33 c91 61
151 160 172 283 29 174 -74 377 -228 449 l-57 27 -447 3 -448 3 0 -636z"/>
<path d="M217 1553 l3 -588 100 -3 100 -3 0 463 0 462 -97 128 c-54 70 -100
128 -103 128 -3 0 -4 -264 -3 -587z"/>
</g>
</svg>
